<svg xmlns="http://www.w3.org/2000/svg" version="1.1" xmlns:xlink="http://www.w3.org/1999/xlink" xmlns:svgjs="http://svgjs.dev/svgjs" width="2000" height="1247" viewBox="0 0 2000 1247"><g transform="matrix(1,0,0,1,-1.2121212121212466,0.504858299595071)"><svg viewBox="0 0 396 247" data-background-color="#ffffff" preserveAspectRatio="xMidYMid meet" height="1247" width="2000" xmlns="http://www.w3.org/2000/svg" xmlns:xlink="http://www.w3.org/1999/xlink"><g id="tight-bounds" transform="matrix(1,0,0,1,0.2400000000000091,-0.09999999999999432)"><svg viewBox="0 0 395.52 247.2" height="247.2" width="395.52"><g><svg></svg></g><g><svg viewBox="0 0 395.52 247.2" height="247.2" width="395.52"><g transform="matrix(1,0,0,1,128.15209096755513,47.215199999999996)"><svg viewBox="0 0 139.21581806488973 152.7696" height="152.7696" width="139.21581806488973"><g><svg viewBox="0 0 139.21581806488973 152.7696" height="152.7696" width="139.21581806488973"><g><svg viewBox="0 0 211.74537287204492 232.36049153865076" height="152.7696" width="139.21581806488973"><g><svg viewBox="0 0 211.74537287204492 232.36049153865076" height="232.36049153865076" width="211.74537287204492"><g id="textblocktransform"><svg viewBox="0 0 211.74537287204492 232.36049153865076" height="232.36049153865076" width="211.74537287204492" id="textblock"><g><svg viewBox="0 0 211.74537287204492 151.825483872" height="151.825483872" width="211.74537287204492"><g transform="matrix(1,0,0,1,0,0)"><svg width="211.74537287204492" viewBox="4.349999904632568 -35.25 49.650001525878906 35.599998474121094" height="151.825483872" data-palette-color="#010c80"><path d="M21.1-9.7L34.3-35.25 37.65-35.25 37.65 0 33.9 0 33.95-27.3 22.5-5.6 19.6-5.6 8.1-27.1 8.15 0 4.35 0 4.35-35.25 7.75-35.25 21.1-9.7ZM41.95 0.35L41.65-3.1 44.65-3.3Q47.15-3.5 48.52-5.08 49.9-6.65 49.9-9.4L49.9-9.4 49.9-35.25 54-35.25 54-9.35Q54-5 51.75-2.55 49.5-0.1 45.2 0.15L45.2 0.15 41.95 0.35Z" opacity="1" transform="matrix(1,0,0,1,0,0)" fill="#010c80" class="undefined-text-0" data-fill-palette-color="primary" id="text-0"></path></svg></g></svg></g><g transform="matrix(1,0,0,1,0,187.66783680256628)"><svg viewBox="0 0 211.74537287204492 44.69265473608449" height="44.69265473608449" width="211.74537287204492"><g transform="matrix(1,0,0,1,0,0)"><svg width="211.74537287204492" viewBox="1.600000023841858 -36.150001525878906 218.62998962402344 46.150001525878906" height="44.69265473608449" data-palette-color="#77d4fc"><path d="M14.85 0L14.85 0 2.1 0 1.6-4.15Q2.25-5 4.35-5.8L4.35-5.8 4.35-28.65Q2.3-29.4 1.6-30.35L1.6-30.35 2.1-34.5 13.25-34.5Q21.3-34.5 26.03-30 30.75-25.5 30.75-16.78 30.75-8.05 26.48-4.03 22.2 0 14.85 0ZM11.55-29.05L11.55-5.45 15.15-5.45Q18.9-5.45 21.08-7.73 23.25-10 23.25-16.55L23.25-16.55Q23.25-29.05 13.8-29.05L13.8-29.05 11.55-29.05ZM45.45 0.4L45.45 0.4Q39.45 0.4 36.42-2.8 33.4-6 33.4-12.1L33.4-12.1Q33.4-15.8 34.45-18.48 35.5-21.15 37.3-22.6L37.3-22.6Q40.8-25.4 45.45-25.4 50.1-25.4 52.57-23.03 55.05-20.65 55.05-14.5L55.05-14.5Q55.05-10.9 51.5-10.9L51.5-10.9 40.65-10.9Q40.85-7.75 42.27-6.45 43.7-5.15 46.8-5.15L46.8-5.15Q48.5-5.15 50.05-5.55 51.6-5.95 52.3-6.35L52.3-6.35 53-6.75 54.5-2.75Q54.2-2.4 53.62-1.88 53.05-1.35 50.72-0.48 48.4 0.4 45.45 0.4ZM40.7-15.05L48.6-15.35Q48.7-16.05 48.7-17.05 48.7-18.05 47.9-19.18 47.1-20.3 45.12-20.3 43.15-20.3 42.1-19.1 41.05-17.9 40.7-15.05L40.7-15.05ZM81.4-19.2L73.15 0.3 67.65 0.3 59.45-19.2Q56.95-20 56.1-21.15L56.1-21.15 56.6-25 68.09-25 68.59-21.15Q67.95-20.35 66.45-19.7L66.45-19.7 69.15-12.15Q70.05-9.8 70.45-7.5L70.45-7.5 70.55-6.8 71.25-6.8Q71.65-9.3 72.65-12.05L72.65-12.05 75.3-19.45Q73.45-20.15 72.7-21.15L72.7-21.15 73.2-25 84.2-25 84.7-21.15Q83.8-20 81.4-19.2L81.4-19.2ZM98.34 0.4L98.34 0.4Q92.34 0.4 89.32-2.8 86.29-6 86.29-12.1L86.29-12.1Q86.29-15.8 87.34-18.48 88.39-21.15 90.19-22.6L90.19-22.6Q93.69-25.4 98.34-25.4 102.99-25.4 105.47-23.03 107.94-20.65 107.94-14.5L107.94-14.5Q107.94-10.9 104.39-10.9L104.39-10.9 93.54-10.9Q93.74-7.75 95.17-6.45 96.59-5.15 99.69-5.15L99.69-5.15Q101.39-5.15 102.94-5.55 104.49-5.95 105.19-6.35L105.19-6.35 105.89-6.75 107.39-2.75Q107.09-2.4 106.52-1.88 105.94-1.35 103.62-0.48 101.29 0.4 98.34 0.4ZM93.59-15.05L101.49-15.35Q101.59-16.05 101.59-17.05 101.59-18.05 100.79-19.18 99.99-20.3 98.02-20.3 96.04-20.3 94.99-19.1 93.94-17.9 93.59-15.05L93.59-15.05ZM109.89-31.65L110.39-35.5Q113.19-36.15 115.59-36.15 117.99-36.15 119.64-36L119.64-36 119.64-5.55Q121.59-4.8 122.39-3.85L122.39-3.85 121.89 0 110.39 0 109.89-3.85Q110.59-4.8 112.64-5.55L112.64-5.55 112.64-29.95Q110.89-30.55 109.89-31.65L109.89-31.65ZM136.01 0.4Q130.09 0.4 127.24-2.75 124.39-5.9 124.39-12.28 124.39-18.65 127.56-22.03 130.74-25.4 136.69-25.4 142.64-25.4 145.51-22.4 148.39-19.4 148.39-13.03 148.39-6.65 145.16-3.13 141.94 0.4 136.01 0.4ZM131.59-12.7L131.59-12.7Q131.59-4.7 136.39-4.7L136.39-4.7Q138.84-4.7 140.01-6.53 141.19-8.35 141.19-12.5L141.19-12.5Q141.19-20.3 136.29-20.3L136.29-20.3Q133.89-20.3 132.74-18.57 131.59-16.85 131.59-12.7ZM150.39-21.15L150.89-25Q153.64-25.6 155.84-25.6 158.04-25.6 159.49-25.5L159.49-25.5 159.49-23.05Q162.84-25.4 166.64-25.4L166.64-25.4Q171.64-25.4 173.89-22.55 176.14-19.7 176.14-13.05L176.14-13.05Q176.14-9.5 175.09-6.8 174.04-4.1 172.24-2.6L172.24-2.6Q168.79 0.4 164.04 0.4L164.04 0.4Q161.99 0.4 160.14 0L160.14 0 160.14 4.3Q163.09 5.1 163.94 6.15L163.94 6.15 163.44 10 150.89 10 150.39 6.15Q151.04 5.25 153.14 4.45L153.14 4.45 153.14-19.45Q151.39-20.05 150.39-21.15L150.39-21.15ZM163.54-4.7L163.54-4.7Q166.04-4.7 167.49-6.93 168.94-9.15 168.94-13.08 168.94-17 168.14-18.45 167.34-19.9 165.24-19.9L165.24-19.9Q162.04-19.9 160.14-18.4L160.14-18.4 160.14-5.1Q161.69-4.7 163.54-4.7ZM190.73 0.4L190.73 0.4Q184.73 0.4 181.71-2.8 178.68-6 178.68-12.1L178.68-12.1Q178.68-15.8 179.73-18.48 180.78-21.15 182.58-22.6L182.58-22.6Q186.08-25.4 190.73-25.4 195.38-25.4 197.86-23.03 200.33-20.65 200.33-14.5L200.33-14.5Q200.33-10.9 196.78-10.9L196.78-10.9 185.93-10.9Q186.13-7.75 187.56-6.45 188.98-5.15 192.08-5.15L192.08-5.15Q193.78-5.15 195.33-5.55 196.88-5.95 197.58-6.35L197.58-6.35 198.28-6.75 199.78-2.75Q199.48-2.4 198.91-1.88 198.33-1.35 196.01-0.48 193.68 0.4 190.73 0.4ZM185.98-15.05L193.88-15.35Q193.98-16.05 193.98-17.05 193.98-18.05 193.18-19.18 192.38-20.3 190.41-20.3 188.43-20.3 187.38-19.1 186.33-17.9 185.98-15.05L185.98-15.05ZM217.88-18.85L217.88-18.85Q214.08-18.85 212.63-17.4L212.63-17.4 212.63-5.95Q216.68-5.2 218.18-3.85L218.18-3.85 217.68 0 203.38 0 202.88-3.85Q203.58-4.8 205.63-5.55L205.63-5.55 205.63-19.45Q203.88-20.05 202.88-21.15L202.88-21.15 203.38-25Q206.13-25.6 208.33-25.6 210.53-25.6 211.98-25.5L211.98-25.5 211.98-22.35Q213.13-23.7 214.93-24.58 216.73-25.45 218.21-25.45 219.68-25.45 220.23-25.2L220.23-25.2 220.08-18.7Q219.08-18.85 217.88-18.85Z" opacity="1" transform="matrix(1,0,0,1,0,0)" fill="#77d4fc" class="undefined-text-1" data-fill-palette-color="secondary" id="text-1"></path></svg></g></svg></g></svg></g></svg></g></svg></g></svg></g></svg></g><g><path d="M193.208 0c33.738 0 64.319 13.518 86.623 35.433l-6.553 0c-21.149-19.219-49.242-30.932-80.07-30.932-30.828 0-58.921 11.713-80.071 30.932l-6.552 0c22.303-21.915 52.884-35.433 86.623-35.433zM193.208 247.2c-33.738 0-64.319-13.518-86.623-35.433h6.552c21.149 19.219 49.242 30.932 80.071 30.932 30.828 0 58.921-11.713 80.07-30.932l6.553 0c-22.303 21.915-52.884 35.433-86.623 35.433z" fill="#010c80" stroke="transparent" data-fill-palette-color="tertiary"></path></g></svg></g><defs></defs></svg><rect width="395.52" height="247.2" fill="none" stroke="none" visibility="hidden"></rect></g></svg></g></svg>